<svg width="979" height="161" viewBox="0 0 979 161" fill="none" xmlns="http://www.w3.org/2000/svg">
<rect width="161" height="161" rx="11.9259" fill="#2F80ED"/>
<path d="M115.558 141.679C113.401 141.52 111.338 140.73 109.628 139.406L104.675 136.039C93.425 128.389 79.4409 118.866 67.8751 110.848C61.3141 106.292 58.0547 100.673 57.918 93.6438C58.1808 86.7937 61.3667 81.3537 67.6753 76.9869C81.5018 67.401 94.9496 58.2359 106.284 50.5336L106.894 50.1126L107.094 49.9969L107.188 49.9443L111.867 46.7876C113.159 45.9854 114.71 45.715 116.197 46.0333C117.683 46.3515 118.988 47.2337 119.839 48.4945C120.689 49.7553 121.018 51.2967 120.757 52.7953C120.496 54.2938 119.665 55.6328 118.439 56.5313L114.78 58.9935L101.111 68.39L100.869 68.5584C94.2031 73.1392 87.544 77.7234 80.8919 82.3112C75.7293 85.8888 73.1113 89.7716 73.1113 93.8858C73.1113 98.0001 75.7398 101.841 80.9024 105.397C88.4517 110.616 96.022 115.825 103.613 121.023L116.231 129.683L116.809 130.114C117.121 130.356 117.447 130.577 117.787 130.777C118.52 131.141 119.165 131.658 119.681 132.293C120.196 132.929 120.568 133.668 120.773 134.46C121.117 136.107 120.832 137.822 119.974 139.269C119.516 140.021 118.872 140.642 118.103 141.071C117.335 141.501 116.469 141.724 115.589 141.721L115.558 141.679Z" fill="white"/>
<path d="M39.566 16.3998C41.096 16.4412 42.5801 16.9323 43.8327 17.8118L47.4439 20.0287C55.6476 25.0653 65.8451 31.3358 74.2837 36.6222C79.071 39.6266 81.5587 43.4895 81.8845 48.4503C81.9221 53.2978 79.847 57.2446 75.5291 60.5352C66.0663 67.758 56.8574 74.6711 49.0949 80.482L48.6775 80.7992L48.54 80.8875L48.4749 80.9277L45.2697 83.3104C44.3828 83.9192 43.2946 84.1608 42.2334 83.9845C41.1722 83.8082 40.2205 83.2277 39.5782 82.3648C38.9359 81.5019 38.6529 80.4238 38.7886 79.3567C38.9242 78.2896 39.468 77.3166 40.3058 76.6419L42.8125 74.7831L52.17 67.6993L52.3356 67.5725C56.8992 64.119 61.4578 60.6634 66.0113 57.2055C69.5446 54.5097 71.2689 51.6815 71.1348 48.7752C71.0006 45.8689 69.0169 43.2416 65.251 40.8977C59.7433 37.4574 54.2211 34.0251 48.6844 30.601L39.4815 24.8955L39.0585 24.6096C38.8302 24.4494 38.592 24.3037 38.3455 24.1732C37.8157 23.9403 37.3422 23.5961 36.9572 23.164C36.5722 22.732 36.2847 22.2221 36.1142 21.6691C35.8173 20.5172 35.9629 19.2959 36.5224 18.2461C36.8217 17.7 37.257 17.2405 37.786 16.912C38.3151 16.5836 38.9201 16.3972 39.5423 16.3711L39.566 16.3998Z" fill="white"/>
<path d="M958.951 47.6869C938.709 47.6869 918.462 47.6869 898.21 47.6869H869.188C868.935 47.6722 868.681 47.6722 868.428 47.6869C866.993 47.9834 865.498 47.6998 864.272 46.8983C862.451 45.4648 861.251 43.3874 860.919 41.0955C860.726 38.7744 862.722 36.2598 864.018 35.1439C864.594 34.7383 865.245 34.4517 865.933 34.301C866.622 34.1502 867.333 34.1383 868.026 34.266C868.234 34.2806 868.443 34.2806 868.652 34.266H932.58C945.378 34.266 958.176 34.266 970.959 34.266C974.356 34.266 976.337 32.7781 977.827 29.2815C978.72 27.2038 979.111 24.9456 978.968 22.6892C978.826 20.4328 978.154 18.2414 977.008 16.2921C976.479 15.3748 975.729 14.6043 974.826 14.0507C973.923 13.4971 972.896 13.1781 971.838 13.1228C959.234 13.0187 946.392 13.0484 933.996 13.1228H903.275C890.999 13.1228 878.723 13.1228 866.447 13.1228C858.253 13.1228 851.548 20.2202 848.822 31.5134C846.2 42.5834 848.36 54.6503 854.334 62.2238C856.733 65.1996 860.83 68.9193 866.64 68.9342C887.855 69.0235 909.061 69.0235 930.257 68.9342H957.804C958.022 68.9483 958.241 68.9483 958.459 68.9342C959.147 68.7713 959.861 68.7601 960.554 68.9015C961.246 69.0428 961.899 69.3333 962.467 69.7526C963.372 70.4826 964.124 71.3843 964.679 72.4057C965.233 73.4272 965.58 74.5482 965.7 75.7042C965.564 76.8457 965.196 77.9476 964.62 78.9427C964.044 79.9378 963.27 80.8052 962.347 81.4922C961.777 81.8889 961.13 82.1626 960.448 82.2958C959.765 82.429 959.063 82.4188 958.385 82.2659C958.166 82.2518 957.947 82.2518 957.729 82.2659H855.526C854.982 82.2572 854.439 82.297 853.902 82.3849C852.889 82.6546 851.947 83.1418 851.141 83.8125C850.336 84.4832 849.687 85.3213 849.239 86.2683C848.291 88.1923 847.758 90.2932 847.673 92.4358C847.588 94.5783 847.954 96.7147 848.747 98.7072C850.356 102.784 852.606 103.588 855.928 103.588C879.001 103.588 902.074 103.588 925.146 103.588H959.279C960.521 103.616 961.763 103.527 962.988 103.32C973.417 101.4 980.866 85.5541 978.542 70.065C976.531 56.2721 969.007 47.7167 958.951 47.6869Z" fill="#2F80ED"/>
<path d="M542.577 68.8328V59.3669C542.577 46.8052 542.577 27.7245 542.577 21.3693C542.703 18.8092 541.885 16.2921 540.279 14.2996C539.536 13.5091 538.633 12.8886 537.63 12.4802C536.628 12.0718 535.549 11.8852 534.468 11.9331C527.679 11.9331 526.581 17.7377 526.552 21.1609C526.552 24.1376 526.552 41.3727 526.552 49.6926V66.3324C526.552 75.7685 526.552 85.2195 526.552 94.611C526.552 99.85 529.22 103.065 533.801 103.422C534.908 103.544 536.029 103.435 537.093 103.102C538.156 102.769 539.14 102.22 539.982 101.487C540.824 100.673 541.49 99.6945 541.938 98.6115C542.387 97.5285 542.61 96.3644 542.591 95.1915C542.71 89.0595 542.68 82.8084 542.591 76.7508C542.577 74.1313 542.577 71.4821 542.577 68.8328Z" fill="#2F80ED"/>
<path d="M690.269 45.9955C686.443 26.2014 674.769 13.2779 660.489 13.2779C638.303 13.1738 617.71 13.1887 595.896 13.2779H570.479C568.424 13.2779 566.399 13.2779 566.012 13.3969C563.183 13.8431 560.875 17.3379 560.369 21.8737C559.818 26.9896 561.456 31.8377 564.3 33.3844C566.584 34.089 568.967 34.4204 571.358 34.3659C590.715 34.3659 608.955 34.3659 627.538 34.3659H659.521C661.449 34.2657 663.381 34.4817 665.239 35.0054C673.92 37.8904 679.459 48.9252 678.402 61.2389C677.345 73.5526 670.257 82.1781 661.145 82.193H576.42V76.6905C576.42 74.0433 576.42 71.3962 576.42 68.749V71.6192C576.42 59.0676 576.42 64.704 576.42 58.3389C576.542 55.7841 575.726 53.2726 574.127 51.2749C573.375 50.4897 572.465 49.8739 571.455 49.4687C570.446 49.0634 569.362 48.8781 568.275 48.9252C561.441 48.9252 560.354 54.7102 560.309 58.1456C560.309 58.7999 560.309 58.9189 560.309 58.8148V66.2506C560.309 74.9356 560.309 83.6157 560.309 92.2908C560.281 92.7861 560.281 93.2827 560.309 93.778V94.5215C560.2 95.8842 560.412 97.2536 560.929 98.5193C561.447 99.785 562.254 100.912 563.287 101.809C563.888 102.413 564.618 102.876 565.422 103.161C566.226 103.447 567.084 103.549 567.933 103.459C579.061 103.459 590.179 103.459 601.287 103.459H661.13C661.457 103.459 661.785 103.459 662.097 103.459H662.365C669.289 103.013 675.766 99.221 680.963 92.4693C689.986 80.8248 693.56 63.0235 690.269 45.9955Z" fill="#2F80ED"/>
<path d="M765.638 62.6792H765.325C762.474 62.702 759.745 63.8357 757.718 65.8392C755.691 67.8427 754.526 70.5577 754.472 73.4063C754.472 79.2168 759.302 83.5821 765.549 83.5821H765.638C771.974 83.5821 776.76 79.1125 776.76 73.302C776.739 70.6118 775.669 68.0357 773.778 66.1208C772.718 65.0354 771.452 64.172 770.055 63.5811C768.657 62.9902 767.156 62.6836 765.638 62.6792Z" fill="#2F80ED"/>
<path d="M834.03 91.7502L829.415 84.9036C829.326 84.7696 829.266 84.6357 829.177 84.5017L828.567 83.5938C817.222 66.894 803.822 47.2174 789.962 27.2283C783.723 18.2979 775.982 13.6839 766.275 13.3118C756.3 13.5053 748.29 18.1491 741.799 27.5259C728.4 46.9644 712.261 70.6894 700.112 88.5501C696.435 93.953 695.304 99.2517 700.112 102.556C701.393 103.419 707.839 106.039 711.398 99.5792C711.859 98.7457 712.499 98.0908 713.035 97.2424L724.439 80.6468C732.449 68.9778 740.464 57.3236 748.484 45.6844C753.828 37.9149 759.694 33.9856 765.903 33.9707C772.126 33.9707 777.992 37.9149 783.366 45.6695C790.155 55.473 796.929 65.3113 803.689 75.1844L817.401 95.114L821.003 100.457C821.562 101.342 822.293 102.106 823.152 102.703C824.011 103.3 824.982 103.719 826.006 103.934C827.03 104.149 828.087 104.157 829.114 103.956C830.141 103.755 831.118 103.35 831.985 102.765C832.853 102.179 833.594 101.426 834.164 100.549C834.735 99.672 835.124 98.6894 835.308 97.6594C835.492 96.6294 835.467 95.573 835.235 94.5528C835.002 93.5326 834.567 92.5695 833.956 91.7204L834.03 91.7502Z" fill="#2F80ED"/>
<path d="M350.256 74.6894L343.945 66.3811L337.917 58.4451L339.018 56.9562C340.775 54.6037 342.571 52.2164 344.407 49.7944C346.743 46.7123 349.11 43.5557 351.477 40.3545V40.2652L351.894 39.6845C353.829 37.0491 355.778 34.3988 357.684 31.7038C357.922 31.3486 358.14 30.9808 358.339 30.602L362.581 24.6463C363.169 23.8047 363.583 22.8544 363.799 21.851C364.016 20.8475 364.03 19.8109 363.842 18.8018C363.653 17.7927 363.266 16.8312 362.702 15.9736C362.138 15.116 361.408 14.3794 360.557 13.8068C358.971 12.7588 357.063 12.3146 355.178 12.555C353.293 12.7955 351.557 13.7046 350.286 15.1171C350.116 15.291 349.957 15.4749 349.81 15.668C349.81 15.7573 349.661 15.8318 349.587 15.9211C349.408 16.1445 349.229 16.3231 349.065 16.5614C347.756 18.3779 346.49 20.2688 345.225 22.1449C344.317 23.5147 343.409 24.8696 342.472 26.2096C332.901 40.0121 321.082 47.159 307.389 47.4419C295.645 47.6801 283.707 47.6652 272.157 47.6354C264.417 47.6354 256.692 47.6354 248.952 47.6354C248.065 47.6837 247.178 47.5516 246.344 47.2471C245.51 46.9425 244.746 46.4719 244.099 45.8636C242.611 44.3747 241.941 42.1115 241.986 38.5678C241.986 34.2052 242.075 29.798 241.896 25.495V19.3457C241.907 18.3713 241.72 17.4049 241.348 16.5044C240.976 15.6039 240.426 14.7879 239.731 14.1052C239.036 13.4225 238.211 12.8872 237.304 12.5315C236.397 12.1757 235.428 12.0069 234.454 12.035C232.464 12.0967 230.575 12.9293 229.187 14.3571C227.798 15.7849 227.019 17.6963 227.012 19.6881C226.9 20.1776 226.831 20.6757 226.804 21.1771C226.488 30.3032 226.687 39.4399 227.399 48.5437C228.011 55.0309 228.011 61.5615 227.399 68.0487C226.714 74.9872 226.655 82.2383 226.61 89.2512V91.4697C226.587 91.926 226.587 92.3832 226.61 92.8395V95.6685C226.547 96.7176 226.696 97.7686 227.048 98.7588C227.401 99.7489 227.949 100.658 228.66 101.431C229.372 102.204 230.232 102.826 231.189 103.26C232.146 103.693 233.181 103.928 234.232 103.952C235.282 103.977 236.326 103.788 237.302 103.399C238.278 103.01 239.166 102.429 239.912 101.689C240.658 100.949 241.248 100.066 241.645 99.0928C242.042 98.1198 242.239 97.0767 242.224 96.0258L242.045 76.5357C242.045 76.3272 242.045 76.1337 242.045 75.9401C242.07 74.0166 242.777 72.1644 244.04 70.7139C244.707 70.0893 245.495 69.6084 246.355 69.301C247.215 68.9937 248.13 68.8665 249.041 68.9272C257.004 68.9272 264.983 68.9272 272.931 68.9272H284.437C292.087 68.9272 299.827 68.9272 307.478 69.1208C321.008 69.4037 332.633 76.2974 342.04 89.6383C342.963 90.9634 347.443 97.5445 348.813 99.3759L349.438 100.299C349.616 100.567 349.84 100.776 350.033 101.014L350.137 101.148C350.558 101.743 351.095 102.245 351.718 102.624C352.34 103.003 353.033 103.251 353.754 103.351C354.826 103.654 355.952 103.712 357.05 103.522C358.147 103.331 359.188 102.896 360.095 102.25C361.767 101.026 362.897 99.1998 363.247 97.1575C363.597 95.1151 363.139 93.0167 361.97 91.3059C361.97 91.3059 350.733 75.1212 350.256 74.6894Z" fill="#2F80ED"/>
<path d="M510.038 81.9864C510.038 81.0783 510.038 80.1851 510.038 79.2919V77.6394C509.964 71.6846 509.472 66.0275 507.194 60.832C506.64 59.0127 506.724 57.059 507.432 55.294C509.479 49.8456 510.176 43.9827 509.463 38.2066C508.749 32.4305 506.648 26.9129 503.337 22.1256C498.989 16.0071 493.375 12.7766 487.419 13.0743C475.684 13.64 463.786 13.4912 452.26 13.3572C447.138 13.3572 442.015 13.2529 436.878 13.2529H405.964C398.518 13.2529 390.671 13.2529 383.032 13.3423C381.898 13.3596 380.782 13.6166 379.755 14.0965C378.729 14.5763 377.815 15.268 377.075 16.1261C376.124 17.3052 375.433 18.6723 375.048 20.1374C374.663 21.6025 374.593 23.1324 374.841 24.6267C375.482 30.0307 379.756 34.4372 384.372 34.4372H485.915C486.169 34.4257 486.422 34.4009 486.674 34.3628C487.389 34.201 488.13 34.1889 488.85 34.3273C489.57 34.4656 490.254 34.7514 490.858 35.1667C492.724 36.6481 493.972 38.7709 494.358 41.1215C494.656 43.6225 491.99 46.2873 490.724 47.0763C489.508 47.7754 488.079 48.0082 486.704 47.7314C486.446 47.7172 486.187 47.7172 485.929 47.7314H434.927C422.022 47.7314 409.116 47.7314 396.21 47.7314C383.449 47.7314 374.767 59.1497 374.618 76.0167V76.1507C374.618 76.3889 374.618 76.5973 374.618 76.8504L374.425 96.2929C374.392 97.3465 374.573 98.3957 374.957 99.3775C375.341 100.359 375.919 101.253 376.658 102.006C377.396 102.758 378.279 103.354 379.253 103.756C380.228 104.159 381.274 104.36 382.328 104.348C383.382 104.336 384.423 104.111 385.388 103.686C386.353 103.261 387.223 102.646 387.943 101.877C388.664 101.108 389.222 100.201 389.583 99.2102C389.945 98.2199 390.102 97.1668 390.045 96.1143L389.241 76.642C389.18 74.5282 389.901 72.4663 391.266 70.8509C391.905 70.2112 392.676 69.7185 393.524 69.4074C394.373 69.0962 395.28 68.9741 396.181 69.0496C427.124 69.1687 457.994 69.1687 487.955 69.0496C488.815 69.0045 489.675 69.1343 490.484 69.4312C491.293 69.728 492.033 70.1856 492.66 70.7765C494.521 72.6523 494.745 75.5255 494.73 77.833L494.358 96.144C494.358 98.2169 495.181 100.205 496.648 101.671C498.114 103.136 500.102 103.96 502.176 103.96C504.249 103.96 506.238 103.136 507.704 101.671C509.17 100.205 509.993 98.2169 509.993 96.144V91.529C509.993 90.2488 509.993 88.9834 509.993 87.7031V81.8822L510.038 81.9864Z" fill="#2F80ED"/>
<path d="M237.046 136.327H229.598V133.926H247.101V136.327H239.653V156.214H237.12L237.046 136.327Z" fill="#231F20"/>
<path d="M288.679 133.926V156.214H286.15V146.081H273.075V156.214H270.546V133.926H273.075V143.614H286.18V133.926H288.679Z" fill="#231F20"/>
<path d="M315.77 136.393V143.688H327.872V146.081H315.77V153.807H329.184V156.214H313.236V133.926H329.228V136.319L315.77 136.393Z" fill="#231F20"/>
<path d="M380.855 153.073L382.427 151.108C383.355 152.113 384.479 152.917 385.728 153.467C386.978 154.018 388.328 154.305 389.693 154.31C393.118 154.31 394.853 152.433 394.853 150.423C394.853 148.055 392.762 147.116 388.922 146.208C384.473 145.165 381.656 143.78 381.656 139.923C381.656 136.364 384.814 133.564 389.07 133.564C391.982 133.551 394.781 134.697 396.854 136.751L395.372 138.717C393.705 136.976 391.428 135.956 389.025 135.872C386.282 135.872 384.281 137.689 384.281 139.729C384.281 142.023 386.475 142.842 390.212 143.751C394.452 144.748 397.477 146.267 397.477 150.199C397.477 153.729 394.838 156.603 389.663 156.603C388.033 156.647 386.412 156.356 384.897 155.749C383.383 155.143 382.008 154.232 380.855 153.073Z" fill="#231F20"/>
<path d="M421.163 133.926H430.221C434.824 133.926 438.414 136.908 438.414 141.052C438.414 145.197 434.824 148.194 430.221 148.194H423.696V156.214H421.163V133.926ZM429.759 145.853C433.394 145.853 435.852 144.109 435.852 141.112C435.852 138.116 433.394 136.386 429.759 136.386H423.696V145.853H429.759Z" fill="#231F20"/>
<path d="M460.552 145.067C460.581 142.82 461.274 140.632 462.543 138.778C463.813 136.924 465.602 135.487 467.686 134.647C469.77 133.807 472.056 133.601 474.256 134.056C476.456 134.512 478.473 135.607 480.053 137.205C481.632 138.803 482.704 140.832 483.133 143.038C483.563 145.243 483.331 147.526 482.466 149.6C481.602 151.674 480.144 153.446 478.275 154.694C476.406 155.941 474.21 156.609 471.963 156.612C468.929 156.561 466.036 155.324 463.903 153.167C461.77 151.009 460.567 148.101 460.552 145.067ZM480.782 145.067C480.712 143.333 480.133 141.657 479.118 140.249C478.103 138.841 476.696 137.763 475.072 137.149C473.449 136.534 471.68 136.411 469.987 136.794C468.294 137.177 466.751 138.05 465.55 139.304C464.35 140.557 463.544 142.136 463.234 143.844C462.924 145.552 463.123 147.313 463.807 148.909C464.49 150.504 465.628 151.864 467.078 152.817C468.528 153.771 470.227 154.277 471.963 154.273C474.345 154.195 476.601 153.188 478.249 151.468C479.898 149.747 480.807 147.45 480.782 145.067Z" fill="#231F20"/>
<path d="M518.257 147.997L524.042 156.214H521.15L515.499 148.22H509.535V156.214H507.015V133.926H516.065C520.673 133.926 524.266 136.898 524.266 141.029C524.255 142.711 523.645 144.336 522.544 145.612C521.444 146.888 519.925 147.733 518.257 147.997ZM509.594 145.828H515.663C519.301 145.828 521.761 144.09 521.761 141.103C521.761 138.116 519.301 136.393 515.663 136.393H509.594V145.828Z" fill="#231F20"/>
<path d="M554.02 136.327H546.572V133.926H564.075V136.327H556.627V156.214H554.095L554.02 136.327Z" fill="#231F20"/>
<path d="M586.345 153.074L587.935 151.108C588.862 152.115 589.986 152.919 591.237 153.47C592.488 154.021 593.839 154.307 595.206 154.31C598.64 154.31 600.379 152.434 600.379 150.423C600.379 148.055 598.283 147.117 594.432 146.208C589.972 145.166 587.147 143.781 587.147 139.923C587.147 136.364 590.329 133.564 594.581 133.564C597.497 133.55 600.299 134.696 602.372 136.751L600.885 138.717C599.21 136.973 596.922 135.952 594.507 135.872C591.756 135.872 589.749 137.689 589.749 139.73C589.749 142.023 591.95 142.842 595.696 143.751C599.933 144.749 602.966 146.268 602.966 150.2C602.966 153.73 600.32 156.604 595.146 156.604C593.517 156.643 591.897 156.35 590.384 155.743C588.871 155.136 587.497 154.228 586.345 153.074Z" fill="#231F20"/>
<path d="M655.611 133.926H664.69C669.282 133.926 672.863 136.908 672.863 141.052C672.863 145.197 669.282 148.194 664.69 148.194H658.182V156.214H655.671L655.611 133.926ZM664.17 145.853C667.796 145.853 670.247 144.109 670.247 141.112C670.247 138.116 667.796 136.386 664.17 136.386H658.122V145.853H664.17Z" fill="#231F20"/>
<path d="M710.262 153.807V156.214H695.529V133.926H698.069V153.733L710.262 153.807Z" fill="#231F20"/>
<path d="M749.224 151.162H736.795L734.56 156.214H731.803L741.638 133.926H744.381L754.217 156.214H751.46L749.224 151.162ZM748.181 148.77L743.025 137.106L737.838 148.77H748.181Z" fill="#231F20"/>
<path d="M781.561 136.327H774.113V133.926H791.616V136.327H784.168V156.214H781.636L781.561 136.327Z" fill="#231F20"/>
<path d="M817.62 136.393V143.688H829.722V146.081H817.62V156.214H815.057V133.926H831.049V136.319L817.62 136.393Z" fill="#231F20"/>
<path d="M853.42 145.067C853.449 142.82 854.138 140.632 855.401 138.778C856.663 136.924 858.442 135.487 860.514 134.647C862.587 133.806 864.86 133.601 867.048 134.056C869.237 134.511 871.242 135.607 872.813 137.205C874.384 138.803 875.45 140.832 875.877 143.038C876.304 145.243 876.073 147.526 875.213 149.6C874.353 151.674 872.903 153.446 871.045 154.694C869.186 155.941 867.002 156.608 864.768 156.612C861.751 156.561 858.874 155.324 856.753 153.166C854.631 151.008 853.435 148.101 853.42 145.067ZM873.524 145.067C873.451 143.336 872.874 141.665 871.864 140.262C870.855 138.858 869.457 137.784 867.845 137.173C866.233 136.562 864.478 136.441 862.798 136.825C861.118 137.21 859.588 138.082 858.397 139.334C857.207 140.586 856.408 142.162 856.101 143.867C855.795 145.571 855.993 147.329 856.672 148.921C857.351 150.513 858.48 151.869 859.92 152.82C861.359 153.772 863.045 154.277 864.768 154.273C867.135 154.195 869.377 153.188 871.014 151.467C872.651 149.745 873.552 147.448 873.524 145.067Z" fill="#231F20"/>
<path d="M910.97 147.997L916.715 156.214H913.85L908.223 148.22H902.285V156.214H899.761V133.926H908.832C913.419 133.926 917.012 136.898 917.012 141.029C916.996 142.719 916.379 144.349 915.272 145.626C914.165 146.903 912.64 147.743 910.97 147.997ZM902.344 145.828H908.386C912.009 145.828 914.458 144.09 914.458 141.103C914.458 138.116 912.009 136.393 908.386 136.393H902.344V145.828Z" fill="#231F20"/>
<path d="M940.809 133.926H943.333L951.575 149.409L959.817 133.926H962.341V156.214H959.817V139.424L951.575 154.922L943.333 139.424V156.214H940.809V133.926Z" fill="#231F20"/>
</svg>
