<svg xmlns="http://www.w3.org/2000/svg" version="1.1" xmlns:xlink="http://www.w3.org/1999/xlink" xmlns:svgjs="http://svgjs.dev/svgjs" width="1000" height="1000" viewBox="0 0 1000 1000"><rect width="1000" height="1000" fill="#ffffff"></rect><g transform="matrix(0.7,0,0,0.7,149.5757600399404,430.2080719359044)"><svg viewBox="0 0 396 79" data-background-color="#ffffff" preserveAspectRatio="xMidYMid meet" height="199" width="1000" xmlns="http://www.w3.org/2000/svg" xmlns:xlink="http://www.w3.org/1999/xlink"><g id="tight-bounds" transform="matrix(1,0,0,1,0.23999860597655243,0.08049043118131749)"><svg viewBox="0 0 395.52 78.83901913763738" height="78.83901913763738" width="395.52"><g><svg viewBox="0 0 395.52 78.83901913763738" height="78.83901913763738" width="395.52"><g><svg viewBox="0 0 571.2353068761611 113.86435904860393" height="78.83901913763738" width="395.52"><g><rect width="10.217318812956858" height="113.86435904860393" x="138.7510801758827" y="0" fill="#000000" opacity="1" stroke-width="0" stroke="transparent" fill-opacity="1" class="rect-o-0" data-fill-palette-color="primary" rx="1%" id="o-0" data-palette-color="#000000"></rect></g><g transform="matrix(1,0,0,1,175.71530687616115,0.28324467425025546)"><svg viewBox="0 0 395.52 113.29786970010342" height="113.29786970010342" width="395.52"><g id="textblocktransform"><svg viewBox="0 0 395.52 113.29786970010342" height="113.29786970010342" width="395.52" id="textblock"><g><svg viewBox="0 0 395.52 113.29786970010342" height="113.29786970010342" width="395.52"><g transform="matrix(1,0,0,1,0,0)"><svg width="395.52" viewBox="0.9800000190734863 -33.279998779296875 118.02999877929688 33.81999969482422" height="113.29786970010342" data-palette-color="#000000"><g class="undefined-text-0" data-fill-palette-color="primary" id="text-0"><path d="M27.47-22.56Q28.05-22.56 28.37-22.35 28.69-22.14 28.85-21.61 29-21.07 29-20.04L29-20.04Q29-19.02 28.85-18.48 28.69-17.94 28.37-17.75 28.05-17.55 27.47-17.55L27.47-17.55 25.81-17.55 18.65-1.05Q18.29-0.2 17.46 0.17 16.63 0.54 14.92 0.54L14.92 0.54Q13.21 0.54 12.4 0.17 11.6-0.2 11.23-1.05L11.23-1.05 4.13-17.55 2.51-17.55Q1.93-17.55 1.61-17.75 1.29-17.94 1.14-18.48 0.98-19.02 0.98-20.04L0.98-20.04Q0.98-21.07 1.14-21.61 1.29-22.14 1.61-22.35 1.93-22.56 2.51-22.56L2.51-22.56 12.38-22.56Q12.96-22.56 13.28-22.35 13.6-22.14 13.76-21.61 13.92-21.07 13.92-20.04L13.92-20.04Q13.92-19.02 13.76-18.48 13.6-17.94 13.28-17.75 12.96-17.55 12.38-17.55L12.38-17.55 10.74-17.55 15.06-6.79 19.43-17.55 18.09-17.55Q17.5-17.55 17.19-17.75 16.87-17.94 16.71-18.48 16.55-19.02 16.55-20.04L16.55-20.04Q16.55-21.07 16.71-21.61 16.87-22.14 17.19-22.35 17.5-22.56 18.09-22.56L18.09-22.56 27.47-22.56ZM44.97-23.1Q48.68-23.1 51.46-21.58 54.25-20.07 55.75-17.38 57.25-14.7 57.25-11.28L57.25-11.28Q57.25-7.86 55.75-5.18 54.25-2.49 51.46-0.98 48.68 0.54 44.97 0.54L44.97 0.54Q41.26 0.54 38.47-0.98 35.69-2.49 34.19-5.18 32.69-7.86 32.69-11.28L32.69-11.28Q32.69-14.7 34.19-17.38 35.69-20.07 38.47-21.58 41.26-23.1 44.97-23.1L44.97-23.1ZM44.97-17.55Q43.21-17.55 41.92-16.78 40.62-16.02 39.93-14.6 39.23-13.18 39.23-11.28L39.23-11.28Q39.23-9.38 39.93-7.96 40.62-6.54 41.92-5.77 43.21-5 44.97-5L44.97-5Q46.73-5 48.02-5.77 49.31-6.54 50.01-7.96 50.71-9.38 50.71-11.28L50.71-11.28Q50.71-13.18 50.01-14.6 49.31-16.02 48.02-16.78 46.73-17.55 44.97-17.55L44.97-17.55ZM76.8-22.56Q77.63-22.56 77.99-22.2 78.34-21.85 78.34-21.02L78.34-21.02 78.34-5 85.2-5Q85.79-5 86.1-4.8 86.42-4.59 86.58-4.05 86.74-3.52 86.74-2.49L86.74-2.49Q86.74-1.46 86.58-0.93 86.42-0.39 86.1-0.2 85.79 0 85.2 0L85.2 0 65.57 0Q64.99 0 64.67-0.2 64.35-0.39 64.19-0.93 64.03-1.46 64.03-2.49L64.03-2.49Q64.03-3.52 64.19-4.05 64.35-4.59 64.67-4.8 64.99-5 65.57-5L65.57-5 72.24-5 72.24-17.55 67.04-17.55Q66.45-17.55 66.13-17.75 65.82-17.94 65.66-18.48 65.5-19.02 65.5-20.04L65.5-20.04Q65.5-21.07 65.66-21.61 65.82-22.14 66.13-22.35 66.45-22.56 67.04-22.56L67.04-22.56 76.8-22.56ZM75.21-33.28Q76.95-33.28 77.64-32.92 78.34-32.57 78.34-31.74L78.34-31.74 78.34-27.73Q78.34-26.9 77.69-26.55 77.05-26.2 75.34-26.2L75.34-26.2Q73.63-26.2 72.93-26.55 72.24-26.9 72.24-27.73L72.24-27.73 72.24-31.74Q72.24-32.59 72.87-32.93 73.51-33.28 75.21-33.28L75.21-33.28ZM113.81-32.03Q114.64-32.03 114.99-31.68 115.35-31.32 115.35-30.49L115.35-30.49 115.35-5 117.47-5Q118.06-5 118.38-4.81 118.69-4.61 118.85-4.08 119.01-3.54 119.01-2.51L119.01-2.51Q119.01-1.49 118.85-0.95 118.69-0.42 118.38-0.21 118.06 0 117.47 0L117.47 0 111.76 0Q110.93 0 110.58-0.35 110.22-0.71 110.22-1.54L110.22-1.54 110.22-3.59Q108.95-1.64 107.05-0.55 105.14 0.54 102.82 0.54L102.82 0.54Q99.63 0.54 97.23-1.03 94.84-2.59 93.57-5.27 92.3-7.96 92.3-11.28L92.3-11.28Q92.3-14.6 93.57-17.29 94.84-19.97 97.23-21.53 99.63-23.1 102.82-23.1L102.82-23.1Q104.73-23.1 106.36-22.35 108-21.61 109.25-20.21L109.25-20.21 109.25-27.03 105.66-27.03Q105.07-27.03 104.75-27.22 104.44-27.42 104.28-27.95 104.12-28.49 104.12-29.52L104.12-29.52Q104.12-30.54 104.28-31.08 104.44-31.62 104.75-31.82 105.07-32.03 105.66-32.03L105.66-32.03 113.81-32.03ZM103.8-17.55Q102.29-17.55 101.16-16.78 100.04-16.02 99.44-14.6 98.85-13.18 98.85-11.28L98.85-11.28Q98.85-9.38 99.44-7.96 100.04-6.54 101.16-5.77 102.29-5 103.8-5L103.8-5Q105.36-5 106.63-5.74 107.9-6.47 108.66-7.9 109.42-9.33 109.42-11.28L109.42-11.28Q109.42-13.23 108.66-14.66 107.9-16.09 106.63-16.82 105.36-17.55 103.8-17.55L103.8-17.55Z" fill="#000000" data-fill-palette-color="primary"></path></g></svg></g></svg></g></svg></g></svg></g><g transform="matrix(1,0,0,1,0,0.28324467425025546)"><svg viewBox="0 0 112.00417228856108 113.29786970010342" height="113.29786970010342" width="112.00417228856108"><g><svg xmlns="http://www.w3.org/2000/svg" xmlns:xlink="http://www.w3.org/1999/xlink" version="1.1" x="0" y="0" viewBox="3.435819625854492 4.255000114440918 88.2941665649414 89.31400299072266" enable-background="new 0 0 100 100" xml:space="preserve" height="113.29786970010342" width="112.00417228856108" class="icon-icon-0" data-fill-palette-color="accent" id="icon-0"><path d="M84.554 4.255c-3.956 0-7.176 3.219-7.176 7.174 0 0.387 0.039 0.765 0.099 1.135-4.092 2.764-9.443 7-15.568 12.325-4.184-1.993-8.861-3.113-13.796-3.113-4.216 0-8.241 0.823-11.934 2.303-8.546-4.33-15.099-4.867-18.489-1.478-3.615 3.615-2.559 10.319 1.195 17.912-1.891 4.094-2.954 8.646-2.954 13.445 0 4.956 1.127 9.652 3.138 13.851C0.588 89.162 3.108 91.712 4.198 92.802c0.469 0.469 1.055 0.767 1.897 0.767 1.784 0 4.716-1.335 10.114-5.214 3.358-2.414 7.331-5.58 11.733-9.347 5.522 4.455 12.538 7.131 20.169 7.131 5.171 0 10.056-1.233 14.39-3.409 3.422 1.423 6.504 2.168 9.096 2.168 2.577 0 4.677-0.725 6.17-2.218 3.033-3.033 2.954-8.486-0.202-15.778 1.748-3.965 2.728-8.34 2.728-12.943 0-7.611-2.661-14.608-7.095-20.124 5.15-5.988 9.264-11.255 11.862-15.254 3.721-0.262 6.67-3.365 6.67-7.15C91.73 7.474 88.511 4.255 84.554 4.255zM68.88 33.851c-5.615 6.406-12.317 13.548-19.557 20.787-1.203 1.202-2.43 2.414-3.659 3.618-1.404-0.985-3.109-1.569-4.951-1.569-1.909 0-3.67 0.63-5.102 1.681-5.973-6.453-10.321-12.584-13.106-17.84 4.847-9.204 14.504-15.497 25.608-15.497C56.256 25.03 63.617 28.417 68.88 33.851zM35.322 65.33c0-2.973 2.418-5.39 5.391-5.39 2.972 0 5.39 2.417 5.39 5.39 0 2.972-2.418 5.389-5.39 5.389C37.741 70.719 35.322 68.302 35.322 65.33zM19.991 24.902c1.997-1.996 6.534-1.603 12.413 0.984-4.737 2.662-8.735 6.486-11.606 11.085C18.316 31.162 18.081 26.812 19.991 24.902zM33.389 60.761c-0.832 1.326-1.32 2.889-1.32 4.569 0 1.666 0.483 3.22 1.304 4.542-1.906 1.731-3.707 3.335-5.405 4.817-5.411-5.26-8.783-12.608-8.783-20.731 0-3.423 0.602-6.707 1.697-9.756C24.099 49.713 28.496 55.486 33.389 60.761zM6.826 90.183c0.652-2.084 4.084-7.877 13.913-19.329 1.348 2.176 2.946 4.18 4.756 5.971C15.18 85.626 9.106 89.5 6.826 90.183zM48.112 82.885c-6.647 0-12.774-2.26-17.665-6.044 1.661-1.451 3.373-2.979 5.129-4.575 1.438 1.066 3.211 1.707 5.136 1.707 1.897 0 3.649-0.623 5.076-1.663 4.52 3.62 8.853 6.503 12.835 8.59C55.362 82.176 51.82 82.885 48.112 82.885zM75.468 80.378c-1.517 1.516-4.78 1.675-9.296 0.201 3.787-2.577 6.999-5.942 9.397-9.857C77.141 75.275 77.128 78.719 75.468 80.378zM77.038 53.958c0 10.755-5.903 20.15-14.637 25.135-4.148-1.89-9.028-4.896-14.386-9.16 0.844-1.336 1.341-2.911 1.341-4.603 0-1.752-0.526-3.379-1.424-4.741 1.24-1.215 2.479-2.438 3.691-3.65 7.151-7.151 13.796-14.222 19.403-20.606C74.791 41.216 77.038 47.327 77.038 53.958zM64.959 26.553c5.377-4.637 10.091-8.369 13.792-10.919 0.724 0.995 1.693 1.796 2.82 2.314-2.49 3.659-6.115 8.261-10.553 13.435C69.204 29.542 67.171 27.917 64.959 26.553zM84.554 15.352c-2.162 0-3.922-1.76-3.922-3.922 0-2.162 1.76-3.92 3.922-3.92 2.163 0 3.923 1.758 3.923 3.92C88.477 13.592 86.717 15.352 84.554 15.352z" fill="#000000" data-fill-palette-color="accent"></path><circle cx="84.426" cy="36.093" r="2.9" fill="#000000" data-fill-palette-color="accent"></circle><circle cx="63.021" cy="64.038" r="5.9" fill="#000000" data-fill-palette-color="accent"></circle><circle cx="42.211" cy="77.572" r="1.2" fill="#000000" data-fill-palette-color="accent"></circle><circle cx="70.555" cy="46.986" r="1.2" fill="#000000" data-fill-palette-color="accent"></circle><circle cx="40.963" cy="32.373" r="1.9" fill="#000000" data-fill-palette-color="accent"></circle><circle cx="24.738" cy="62.178" r="1.9" fill="#000000" data-fill-palette-color="accent"></circle><circle cx="42.425" cy="46.986" r="3.3" fill="#000000" data-fill-palette-color="accent"></circle></svg></g></svg></g></svg></g></svg></g><defs></defs></svg><rect width="395.52" height="78.83901913763738" fill="none" stroke="none" visibility="hidden"></rect></g></svg></g></svg>